<?xml version="1.0" encoding="UTF-8" standalone="no"?>
<svg width="168px" height="69px" viewBox="0 0 168 69" version="1.1" xmlns="http://www.w3.org/2000/svg" xmlns:xlink="http://www.w3.org/1999/xlink" xmlns:sketch="http://www.bohemiancoding.com/sketch/ns">
    <!-- Generator: Sketch 3.4.4 (17249) - http://www.bohemiancoding.com/sketch -->
    <title>LOGO</title>
    <desc>Created with Sketch.</desc>
    <defs></defs>
    <g id="Page-1" stroke="none" stroke-width="1" fill="none" fill-rule="evenodd" sketch:type="MSPage">
        <g id="1_0_start" sketch:type="MSArtboardGroup" transform="translate(-130.000000, 0.000000)">
            <g id="LOGO" sketch:type="MSLayerGroup" transform="translate(130.000000, 0.000000)">
                <path d="M0,0 L35.7165354,0 L35.7165354,60.1656004 L0,68.3316062 L0,0 Z M9.84243767,31.8399945 C9.84243767,32.0746449 9.72652045,32.3062675 9.58446167,32.3570855 L6.608657,33.4208569 C6.48737389,33.4642087 6.38961818,33.3249668 6.38961818,33.1100656 L6.38961818,29.1851076 C6.38961818,28.9702064 6.48737389,28.7488368 6.608657,28.6903118 L9.58442728,27.2540243 C9.72652045,27.1854527 9.84240327,27.3197057 9.84240327,27.5543561 L9.84240327,31.8399945 L9.84243767,31.8399945 Z M15.1308767,29.8527602 C15.1308767,30.1134217 14.9878548,30.3758723 14.8126719,30.4385261 L11.1741441,31.7392187 C11.0270978,31.7917914 10.9086352,31.6423996 10.9086352,31.4058568 L10.9086352,27.0857091 C10.9086352,26.8491663 11.0270978,26.6002718 11.1741441,26.5292917 L14.8126719,24.7731296 C14.9878548,24.6885247 15.1308767,24.8308289 15.1308767,25.0914904 L15.1308767,29.8527602 Z M21.7311065,27.3725537 C21.7311065,27.6657635 21.5502137,27.9681253 21.3288359,28.0472596 L16.7785178,29.6739511 C16.5964899,29.7390133 16.449994,29.5781642 16.449994,29.3151631 L16.449994,24.5112639 C16.449994,24.2482628 16.5965243,23.9643083 16.7785522,23.8764692 L21.3288703,21.6802172 C21.5502137,21.5733171 21.7311065,21.7237411 21.7311065,22.0169508 L21.7311065,27.3725537 Z M21.7311065,36.1221234 C21.7311065,36.4153332 21.5502137,36.691271 21.3288359,36.7380291 L16.7785178,37.699442 C16.5964899,37.7379081 16.4499596,37.5556584 16.4499596,37.2926229 L16.4499596,32.4887237 C16.4499596,32.2257226 16.5964899,31.9632031 16.7785178,31.9019601 L21.3288359,30.3709523 C21.5502137,30.2964628 21.7311065,30.4733107 21.7311065,30.7665205 L21.7311065,36.1221234 Z M30.1918936,44.1658495 C30.1918936,44.5008629 29.9558971,44.7877763 29.6674112,44.8065621 L23.8151742,45.1874733 C23.5840965,45.2025088 23.398285,44.9745332 23.398285,44.6783989 L23.398285,39.2693632 C23.398285,38.9732289 23.5840965,38.6978072 23.8151742,38.653836 L29.6674112,37.5403476 C29.9558971,37.4854697 30.1918936,37.7121379 30.1918936,38.0471168 L30.1918936,44.1658495 Z M21.7311065,53.6535014 C21.7311065,53.9467111 21.5502137,54.1697322 21.3288359,54.1517722 L16.7785178,53.7826967 C16.5964899,53.7679364 16.4499596,53.542851 16.4499596,53.2798154 L16.4499596,48.4759163 C16.4499596,48.2129152 16.5964899,47.9932315 16.7785178,47.9852148 L21.3288359,47.7846954 C21.5502137,47.774924 21.7311065,48.0046543 21.7311065,48.2978985 L21.7311065,53.6535014 Z M21.7311065,44.8715898 C21.7311065,45.1647996 21.5502137,45.4142791 21.3288359,45.4286953 L16.7785178,45.724864 C16.5964899,45.7366997 16.4499596,45.5330494 16.4499596,45.2700138 L16.4499596,40.4661147 C16.4499596,40.2031135 16.5964899,39.9619948 16.7785178,39.9273821 L21.3288359,39.0616185 C21.5502137,39.0195053 21.7311065,39.2227772 21.7311065,39.515987 L21.7311065,44.8715898 Z M15.1308767,37.6374076 C15.1308767,37.8980691 14.9878548,38.1396351 14.8126719,38.1766218 L11.1741441,38.9454287 C11.0270978,38.9764975 10.9086352,38.8097994 10.9086352,38.5732567 L10.9086352,34.2530745 C10.9086352,34.0165317 11.0270978,33.7849435 11.1741441,33.7354674 L14.8126719,32.5112254 C14.9878548,32.4522875 15.1308767,32.6155106 15.1308767,32.8761721 L15.1308767,37.6374076 Z M15.1308767,45.4220205 C15.1308767,45.682682 14.9878548,45.9033291 14.8126719,45.9147175 L11.1741441,46.1515699 C11.0270978,46.1611348 10.9086352,45.977096 10.9086352,45.7405877 L10.9086352,41.4204055 C10.9086352,41.1838627 11.0270978,40.9695808 11.1741441,40.9416086 L14.8126719,40.2493211 C14.9878548,40.2159815 15.1308767,40.4000891 15.1308767,40.660785 L15.1308767,45.4220205 L15.1308767,45.4220205 Z M9.84243767,38.8515341 C9.84243767,39.0861845 9.72652045,39.3008793 9.58446167,39.3308815 L6.608657,39.9596207 C6.48737389,39.9852534 6.38961818,39.8316984 6.38961818,39.6167972 L6.38961818,35.6918736 C6.38961818,35.4769724 6.48737389,35.2698814 6.608657,35.2290756 L9.58442728,34.2278203 C9.72652045,34.1800301 9.84240327,34.3312454 9.84240327,34.5658614 L9.84240327,38.8515341 L9.84243767,38.8515341 Z M9.84243767,45.8630394 C9.84243767,46.0976898 9.72652045,46.2954223 9.58446167,46.3046776 L6.6086914,46.4983846 C6.48740828,46.5062636 6.38965258,46.3384301 6.38965258,46.1235632 L6.38965258,42.1986397 C6.38965258,41.9837385 6.48740828,41.7909604 6.6086914,41.7678739 L9.58446167,41.2016852 C9.72655485,41.1746419 9.84243767,41.3428195 9.84243767,41.5774354 L9.84243767,45.8630394 Z" id="Shape" fill="#EC6932" sketch:type="MSShapeGroup"></path>
                <path d="M44,26 L48.0560554,26 L50.0848892,36.3865394 L50.5462841,39.173996 L50.7761582,39.173996 L51.351684,36.3865394 L53.8644164,26 L57.5748201,26 L60.0409328,36.3865394 L60.5939548,39.173996 L60.847945,39.173996 L61.3093399,36.3865394 L63.3831811,26 L67.3700787,26 L63.1982802,43.1931138 L58.4509558,43.1931138 L56.283875,34.4109916 L55.7999764,30.8569628 L55.592606,30.8569628 L55.0862037,34.4109916 L52.8966192,43.1931138 L48.1251788,43.1931138 L44,26 L44,26 Z" id="Shape" fill="#FFFFFF" sketch:type="MSShapeGroup"></path>
                <path d="M74.7053397,43.6339629 C72.1667712,43.6339629 70.2488502,42.9007701 68.9499382,41.4295146 C67.649456,39.9615057 67,37.7635159 67,34.8404496 C67,31.9011852 67.6462475,29.6934904 68.9387424,28.2157765 C70.2296331,26.7396859 72.1523669,26 74.7053397,26 C77.2583124,26 79.1842548,26.7396859 80.484737,28.2157765 C81.7836149,29.6934904 82.4330709,31.9011852 82.4330709,34.8404496 C82.4330709,37.7635159 81.7836149,39.9615057 80.484737,41.4295146 C79.1842548,42.9007701 77.2583466,43.6339629 74.7053397,43.6339629 L74.7053397,43.6339629 Z M74.7053397,40.5717111 C75.4235745,40.5717111 76.0314219,40.4713457 76.5288819,40.2706493 C77.0247718,40.0699529 77.4310615,39.7446113 77.7445767,39.2962823 C78.0564876,38.8463301 78.2820411,38.2587811 78.4212029,37.5320813 C78.5587605,36.805347 78.6275734,35.9070657 78.6275734,34.8404496 C78.6275734,33.7884082 78.5539818,32.8949621 78.408437,32.1601461 C78.2628581,31.42533 78.0341303,30.8264528 77.7206151,30.3619603 C77.4070999,29.8974333 77.0023803,29.5623867 76.5049203,29.3536086 C76.0090304,29.1448305 75.4092043,29.0396298 74.7053738,29.0396298 C74.0015433,29.0396298 73.4064959,29.1448305 72.9170231,29.3536086 C72.4275503,29.5623867 72.0260392,29.8941868 71.7125241,30.3506321 C71.3990089,30.8070428 71.1702469,31.4026735 71.0247021,32.1374896 C70.8791574,32.8723057 70.80717,33.7738334 70.80717,34.8404496 C70.80717,35.892491 70.8791574,36.785937 71.0247021,37.5207531 C71.170281,38.2555692 71.3958003,38.8463301 71.7013283,39.2962823 C72.0068563,39.7446113 72.4083673,40.0699529 72.9058274,40.2706493 C73.4016831,40.4713457 74.0015433,40.5717111 74.7053397,40.5717111 L74.7053397,40.5717111 Z" id="Shape" fill="#FFFFFF" sketch:type="MSShapeGroup"></path>
                <path d="M86,26 L89.7937682,26 L89.7937682,40.196611 L96.5826772,40.196611 L96.5826772,43.1931138 L86,43.1931138 L86,26 L86,26 Z" id="Shape" fill="#FFFFFF" sketch:type="MSShapeGroup"></path>
                <path d="M98,26 L109.464567,26 L109.464567,29.0208484 L101.745217,29.0208484 L101.745217,33.4580933 L108.701996,33.4580933 L108.701996,36.4789071 L101.745217,36.4789071 L101.745217,43.1931138 L98,43.1931138 L98,26 L98,26 Z" id="Shape" fill="#FFFFFF" sketch:type="MSShapeGroup"></path>
                <path d="M115.696941,29.0435278 L111,29.0435278 L111,26 L124.228346,26 L124.228346,29.0435278 L119.506949,29.0435278 L119.506949,43.1931138 L115.696907,43.1931138 L115.696907,29.0435278 L115.696941,29.0435278 Z" id="Shape" fill="#FFFFFF" sketch:type="MSShapeGroup"></path>
                <path d="M126,26 L137.696287,26 L137.696287,29.0208484 L129.766293,29.0208484 L129.766293,33.0399662 L136.929059,33.0399662 L136.929059,36.06078 L129.766293,36.06078 L129.766293,40.1723 L137.905512,40.1723 L137.905512,43.1931138 L126,43.1931138 L126,26 L126,26 Z" id="Shape" fill="#FFFFFF" sketch:type="MSShapeGroup"></path>
                <path d="M146.962779,43.6339629 C144.278174,43.6339629 142.279901,42.9156335 140.967961,41.4805593 C139.655987,40.047104 139,37.8323872 139,34.8395778 C139,31.8161118 139.644816,29.5868244 140.934448,28.1517847 C142.22248,26.7167104 144.171267,26 146.779242,26 C147.786365,26 149.013739,26.1146006 150.464567,26.3470743 L150.464567,29.378635 C149.731984,29.2704757 149.120681,29.1930074 148.633859,29.1461958 C148.14547,29.1010031 147.695396,29.0767879 147.283569,29.0767879 C146.444045,29.0767879 145.741773,29.1704111 145.178355,29.3544542 C144.613337,29.5400817 144.155259,29.8532615 143.805724,30.29234 C143.454588,30.7314186 143.202425,31.3222302 143.050799,32.0631559 C142.897573,32.8024627 142.820943,33.7290504 142.820943,34.8396467 C142.820943,35.9357069 142.897573,36.8461396 143.050799,37.5709448 C143.202425,38.2957499 143.451421,38.8784668 143.794553,39.3175454 C144.13772,39.7566239 144.590995,40.0697692 145.156013,40.2554312 C145.719431,40.4394398 146.40573,40.5330975 147.214943,40.5330975 C147.443164,40.5330975 147.703332,40.5250373 147.992244,40.5088823 C148.282723,40.4943462 148.576403,40.4717499 148.873285,40.4394743 C149.171767,40.4088177 149.457444,40.3748887 149.73195,40.3361718 C150.006456,40.2974205 150.250684,40.2554657 150.464533,40.2086541 L150.464533,43.1934032 C149.990517,43.317683 149.441437,43.42102 148.815795,43.5065485 C148.19012,43.5903892 147.572448,43.6339629 146.962779,43.6339629 L146.962779,43.6339629 Z" id="Shape" fill="#FFFFFF" sketch:type="MSShapeGroup"></path>
                <path d="M152,26 L155.752953,26 L155.752953,32.8779164 L162.796607,32.8779164 L162.796607,26 L166.551181,26 L166.551181,43.1931138 L162.796607,43.1931138 L162.796607,35.8971049 L155.752953,35.8971049 L155.752953,43.1931138 L152,43.1931138 L152,26 L152,26 Z" id="Shape" fill="#FFFFFF" sketch:type="MSShapeGroup"></path>
                <path d="M49.3656105,59.2578305 C49.1886401,59.2578305 48.9921642,59.2529274 48.7778457,59.2447904 C48.5635272,59.2366534 48.3508371,59.2252476 48.1397753,59.2089387 C47.9303418,59.1926299 47.7257588,59.1714527 47.5276891,59.1470068 C47.3296195,59.1241953 47.1526144,59.0997494 47,59.0753035 L47,50.1694521 C47.2662871,50.1368692 47.5033332,50.1107889 47.7095099,50.0912461 C47.9157213,50.070069 48.1040555,50.0537601 48.2729188,50.0423543 C48.4434105,50.0293142 48.6008753,50.0195428 48.747011,50.0114058 C48.8931467,50.0032687 49.0425044,50 49.1967472,50 C50.1676592,50 50.8755754,50.1906641 51.3204266,50.5719922 C51.7653124,50.9533203 51.987738,51.5578955 51.987738,52.3873867 C51.987738,52.972419 51.8562228,53.4515308 51.5931925,53.8247218 C51.3301621,54.1979129 50.9632291,54.429297 50.4939873,54.5189435 L50.4939873,54.5678353 C51.0525112,54.6574471 51.492512,54.8970029 51.8123613,55.2865029 C52.1305824,55.675968 52.2913386,56.1844287 52.2913386,56.8085467 C52.2913732,58.4413794 51.3155762,59.2578305 49.3656105,59.2578305 L49.3656105,59.2578305 Z M49.232467,54.3477875 C49.6529969,54.3477875 50.008566,54.3135702 50.3008027,54.2451356 C50.5914458,54.1750666 50.8284919,54.0642429 51.0103127,53.9094305 C51.1921681,53.7562525 51.3269054,53.5525483 51.411337,53.2999523 C51.4957687,53.0489907 51.5379672,52.744269 51.5379672,52.3873519 C51.5379672,51.704536 51.3528897,51.2058815 50.9794433,50.8881197 C50.6076253,50.5719922 50.0133818,50.4139111 49.1967126,50.4139111 C48.8557639,50.4139111 48.5488721,50.4236825 48.2728842,50.44326 C47.99849,50.4644372 47.7192454,50.4954206 47.4367094,50.5361405 L47.4367094,54.3478223 L49.232467,54.3478223 L49.232467,54.3477875 Z M49.3656105,58.8683306 C50.1985285,58.8601935 50.8187564,58.6890723 51.2230375,58.3566359 C51.6273185,58.0225652 51.8302732,57.5076019 51.8302732,56.8085119 C51.8302732,56.0947474 51.6256901,55.5781497 51.2165587,55.2620222 C50.809021,54.9458947 50.1514796,54.7861792 49.2454938,54.7861792 L47.4367787,54.7861792 L47.4367787,58.72169 C47.5163253,58.7379988 47.629998,58.7559073 47.7761337,58.7754501 C47.9222694,58.7966273 48.0829909,58.8129361 48.2615897,58.8243419 C48.4401884,58.837382 48.6252659,58.8471534 48.8201135,58.8552904 C49.0132634,58.8634623 49.1967472,58.8683306 49.3656105,58.8683306 L49.3656105,58.8683306 Z" id="Shape" fill="#FFFFFF" sketch:type="MSShapeGroup"></path>
                <path d="M56.864883,55.6826721 C56.5235109,55.7321472 56.1470018,55.7568848 55.7386765,55.7568848 C55.338707,55.7568848 54.908671,55.7321472 54.4501398,55.6826721 L54.4501398,59.2578305 L54,59.2578305 L54,50.1979005 C54.6426079,50.0659786 55.2600772,50 55.8508008,50 C57.0021103,50 57.8421856,50.2308722 58.3726335,50.6909627 C58.9014388,51.1510532 59.1658236,51.8782953 59.1658236,52.8726539 C59.1658236,53.619672 59.0185623,54.216646 58.7223613,54.6602331 C58.4261603,55.1038202 57.957595,55.4122128 57.3150228,55.5836867 L59.2913386,59.2577953 L58.7909928,59.2577953 L56.864883,55.6826721 L56.864883,55.6826721 Z M55.8390885,55.3248396 C56.83978,55.3248396 57.5694093,55.1302468 58.0279048,54.7394425 C58.4864361,54.350257 58.7156839,53.7269267 58.7156839,52.8727242 C58.7156839,52.0267559 58.4914353,51.408352 58.0412955,51.0175478 C57.5894774,50.6267084 56.8765954,50.4321156 55.9010068,50.4321156 C55.6935054,50.4321156 55.465936,50.4436575 55.219941,50.468395 C54.973946,50.4931326 54.7179169,50.5261043 54.4501755,50.5673453 L54.4501755,55.2143826 C54.6593552,55.2555885 54.8869246,55.2852876 55.1329196,55.3001372 C55.3788789,55.3182241 55.6131616,55.3248396 55.8390885,55.3248396 L55.8390885,55.3248396 Z" id="Shape" fill="#FFFFFF" sketch:type="MSShapeGroup"></path>
                <path d="M63.0803621,59.2578305 C62.0588015,59.2578305 61.2894967,58.8732351 60.774019,58.1057134 C60.2585413,57.3381569 60,56.1844055 60,54.6411555 C60,53.0816316 60.2585413,51.918074 60.774019,51.1505175 C61.2894967,50.3829611 62.0588015,50 63.0803621,50 C64.1034941,50 64.8743703,50.3845954 65.3945287,51.1570202 C65.9131491,51.9278106 66.1732283,53.0897338 66.1732283,54.6411208 C66.1732283,56.1761989 65.9115778,57.3283508 65.3882432,58.1007756 C64.8649755,58.8716008 64.0956706,59.2578305 63.0803621,59.2578305 L63.0803621,59.2578305 Z M63.0803621,58.8194404 C63.9781519,58.8194404 64.6471562,58.4755996 65.0842992,57.7895176 C65.5214423,57.1034355 65.7392281,56.0539699 65.7392281,54.6411208 C65.7392281,51.8381992 64.8539759,50.4383553 63.0803621,50.4383553 C62.1903958,50.4383553 61.5245342,50.7838305 61.0842484,51.4731465 C60.6423913,52.1640968 60.4230341,53.2200998 60.4230341,54.6411208 C60.4230341,56.0702787 60.6408199,57.123013 61.0779629,57.8009233 C61.5151394,58.4805027 62.1825723,58.8194404 63.0803621,58.8194404 L63.0803621,58.8194404 Z" id="Shape" fill="#FFFFFF" sketch:type="MSShapeGroup"></path>
                <path d="M67,58.745255 L70.006141,50 L70.6063919,50 L73.6141732,58.745255 L73.6141732,58.8169814 L73.1725792,58.8169814 L72.1585498,55.8620484 L68.4540181,55.8620484 L67.4399886,58.8169814 L67.0000349,58.8169814 L67.0000349,58.745255 L67,58.745255 Z M72.0113401,55.4460757 L70.7650489,51.8233282 L70.3120076,50.4653888 L70.2874726,50.4653888 L69.8360716,51.8233282 L68.6012277,55.4460757 L72.0113401,55.4460757 L72.0113401,55.4460757 Z" id="Shape" fill="#FFFFFF" sketch:type="MSShapeGroup"></path>
                <path d="M76.5126318,59.2578305 C76.2205371,59.2578305 75.9431708,59.2465144 75.6837013,59.2270908 C75.4226302,59.2060802 75.1958208,59.1769619 75,59.1365622 L75,50.1924079 C75.3328674,50.1277199 75.6706443,50.0792471 76.0132958,50.0485073 C76.3543108,50.0161806 76.6513149,50 76.902602,50 C78.212867,50 79.1772425,50.3734652 79.800568,51.123673 C80.4222572,51.8722594 80.7322835,53.0331236 80.7322835,54.6046443 C80.7322835,56.1987972 80.3912684,57.3742206 79.7092036,58.1276715 C79.0255023,58.8810878 77.9599783,59.2578305 76.5126318,59.2578305 L76.5126318,59.2578305 Z M76.5615869,58.8099483 C79.0336499,58.8099483 80.2688805,57.4081688 80.2688805,54.6046443 C80.2688805,53.1705381 79.9947523,52.1163831 79.446496,51.4438008 C78.8966032,50.7712185 78.0366841,50.4349101 76.8667386,50.4349101 C76.6546227,50.4349101 76.4212673,50.4446047 76.1651056,50.4640283 C75.9089091,50.485039 75.667441,50.5157787 75.438995,50.554557 L75.438995,58.7371873 C75.6592586,58.761441 75.8534428,58.7792431 76.024786,58.7921462 C76.1960595,58.8034968 76.3739486,58.8099483 76.5615869,58.8099483 L76.5615869,58.8099483 Z" id="Shape" fill="#FFFFFF" sketch:type="MSShapeGroup"></path>
                <path d="M85.8139099,59.2578305 C84.4960576,59.2496604 83.5322165,58.8733125 82.9189824,58.1271807 C82.3057483,57.3810489 82,56.2176837 82,54.6354443 C82,53.818959 82.0731214,53.1186704 82.2176976,52.5312618 C82.3622737,51.9438532 82.589936,51.4627955 82.9007198,51.0880885 C83.2115036,50.7133816 83.6086713,50.4368555 84.0939252,50.2617921 C84.5775125,50.0867287 85.1558526,50 85.8255767,50 C86.0333097,50 86.2643053,50.0114521 86.5218969,50.0359973 C86.7778219,50.0605425 87.0354136,50.0932577 87.2913386,50.134178 L87.2913386,50.5743155 C87.1019037,50.5333952 86.8775394,50.4990389 86.6216144,50.4696057 C86.3640228,50.4417785 86.1163957,50.4270793 85.8754355,50.4270793 C85.2788327,50.4270793 84.7653161,50.5072439 84.3348855,50.6659672 C83.9044549,50.8246904 83.5504792,51.0750304 83.2729582,51.4186281 C82.9954372,51.7605848 82.7926689,52.1974752 82.6647241,52.7276233 C82.5367793,53.2577715 82.4719559,53.8926294 82.4719559,54.6354793 C82.4719559,56.0704475 82.7411789,57.1274618 83.2796249,57.8081282 C83.8180709,58.4904355 84.6539673,58.8307861 85.789016,58.8307861 C85.8638041,58.8307861 85.9635216,58.8258631 86.0865018,58.817693 C86.2111486,58.809523 86.3440934,58.7997119 86.4853362,58.7866188 C86.6249123,58.7751667 86.7661906,58.7587916 86.9074334,58.7391694 C87.0470449,58.7179062 87.1766564,58.6998901 87.2913386,58.6835499 L87.2913386,59.0991422 C87.0769744,59.1482326 86.8443121,59.1875119 86.5966851,59.2153041 C86.3473559,59.2447374 86.0864663,59.2578305 85.8139099,59.2578305 L85.8139099,59.2578305 Z" id="Shape" fill="#FFFFFF" sketch:type="MSShapeGroup"></path>
                <path d="M89,58.745255 L92.006141,50 L92.6063919,50 L95.6141732,58.745255 L95.6141732,58.8169814 L95.1725792,58.8169814 L94.1585498,55.8620484 L90.4540181,55.8620484 L89.4399886,58.8169814 L89.0000349,58.8169814 L89.0000349,58.745255 L89,58.745255 Z M94.0113401,55.4460757 L92.7650489,51.8233282 L92.3120076,50.4653888 L92.2874726,50.4653888 L91.8360716,51.8233282 L90.6012277,55.4460757 L94.0113401,55.4460757 L94.0113401,55.4460757 Z" id="Shape" fill="#FFFFFF" sketch:type="MSShapeGroup"></path>
                <path d="M98.3000647,59.2578305 C98.1326889,59.2578305 97.9461981,59.2481478 97.7405922,59.2271284 C97.5333878,59.207763 97.3261493,59.1803 97.1205435,59.1431543 C96.913339,59.1076281 96.7140935,59.0672433 96.5180451,59.0220344 C96.3235954,58.9784451 96.1514239,58.9283776 96,58.8718665 L96.0717325,58.4617129 C96.2072045,58.5101609 96.3682199,58.5553698 96.5547107,58.6005787 C96.7412015,58.644168 96.9356512,58.6829333 97.1380939,58.7152204 C97.3405366,58.7475076 97.5429453,58.7733511 97.745388,58.7927165 C97.9478307,58.8137014 98.1375187,58.8233841 98.3112548,58.8233841 C98.9791252,58.8233841 99.4955378,58.6619139 99.8605605,58.3405586 C100.225583,58.0192033 100.408877,57.5557432 100.408877,56.9518323 C100.408877,56.678925 100.365851,56.4351002 100.278167,56.221943 C100.190482,56.0087858 100.059806,55.8182331 99.8844713,55.6486653 C99.7107352,55.4790975 99.4939732,55.3256905 99.2357499,55.1835857 C98.9775266,55.0431004 98.6778761,54.9042347 98.3351656,54.766954 C97.9382732,54.6151665 97.6003585,54.4585205 97.3230202,54.2970503 C97.0456818,54.1355801 96.8193283,53.9611537 96.6439936,53.7722205 C96.4686589,53.5832873 96.3443431,53.3749887 96.2678148,53.1505293 C96.1928852,52.9244504 96.1546551,52.6709429 96.1546551,52.3899379 C96.1546551,52.0282323 96.21683,51.7003989 96.3395473,51.4065066 C96.4638632,51.1126143 96.6344361,50.8606919 96.8527967,50.6507738 C97.0711572,50.4424752 97.3357749,50.2809705 97.644983,50.1679483 C97.9542251,50.0565111 98.3000987,50 98.6810393,50 C98.9599762,50 99.2484706,50.0193654 99.5513184,50.0597502 C99.8525675,50.1001005 100.179326,50.1566461 100.528397,50.229318 L100.467821,50.6636955 C100.094839,50.5748973 99.761686,50.511908 99.4684298,50.4763818 C99.173541,50.4408556 98.9121205,50.4214902 98.6810052,50.4214902 C98.3717631,50.4214902 98.0880645,50.4683187 97.8298412,50.560356 C97.5716179,50.6540128 97.3500601,50.7864349 97.1683651,50.9592073 C96.9850715,51.1319797 96.8448037,51.3386933 96.7443647,51.5808985 C96.6455582,51.8215187 96.596138,52.091187 96.596138,52.3899379 C96.596138,52.6224605 96.6296063,52.832413 96.6981416,53.0164877 C96.7650783,53.2021818 96.8734763,53.3717496 97.0249002,53.5235371 C97.176324,53.6769441 97.373971,53.822288 97.6210381,53.9595342 C97.8665067,54.0951953 98.1693544,54.2292025 98.5263842,54.356766 C98.9153177,54.510173 99.254831,54.6668191 99.544924,54.8282892 C99.835017,54.9897594 100.077288,55.1673904 100.271772,55.3644212 C100.466222,55.5630371 100.611285,55.7891161 100.706929,56.0474822 C100.802572,56.3042287 100.850394,56.6062186 100.850394,56.9517979 C100.850394,57.6849263 100.625639,58.2517259 100.176163,58.6538163 C99.7282176,59.0575951 99.1018085,59.2578305 98.3000647,59.2578305 L98.3000647,59.2578305 Z" id="Shape" fill="#FFFFFF" sketch:type="MSShapeGroup"></path>
                <path d="M103.649989,50.428728 L101,50.428728 L101,50 L106.732283,50 L106.732283,50.428728 L104.095512,50.428728 L104.095512,58.8169814 L103.649989,58.8169814 L103.649989,50.428728 L103.649989,50.428728 Z" id="Shape" fill="#FFFFFF" sketch:type="MSShapeGroup"></path>
                <path d="M113.300065,59.2578305 C113.132689,59.2578305 112.946198,59.2481478 112.740592,59.2271284 C112.533388,59.207763 112.326149,59.1803 112.120543,59.1431543 C111.913339,59.1076281 111.714093,59.0672433 111.518045,59.0220344 C111.323595,58.9784451 111.151458,58.9283776 111,58.8718665 L111.071732,58.4617129 C111.207204,58.5101609 111.36822,58.5553698 111.554711,58.6005787 C111.741201,58.644168 111.935651,58.6829333 112.138094,58.7152204 C112.340537,58.7475076 112.542945,58.7733511 112.745388,58.7927165 C112.947831,58.8137014 113.137485,58.8233841 113.311255,58.8233841 C113.979125,58.8233841 114.495538,58.6619139 114.86056,58.3405586 C115.225583,58.0192033 115.408877,57.5557432 115.408877,56.9518323 C115.408877,56.678925 115.365851,56.4351002 115.278167,56.221943 C115.190482,56.0087858 115.059772,55.8182331 114.884471,55.6486653 C114.710735,55.4790975 114.493973,55.3256905 114.23575,55.1835857 C113.977527,55.0431004 113.677876,54.9042347 113.335166,54.766954 C112.938273,54.6151665 112.600359,54.4585205 112.32302,54.2970503 C112.045682,54.1355801 111.819328,53.9611537 111.643994,53.7722205 C111.468659,53.5832873 111.344343,53.3749887 111.267815,53.1505293 C111.192885,52.9244504 111.154621,52.6709429 111.154621,52.3899379 C111.154621,52.0282323 111.216796,51.7003989 111.339513,51.4065066 C111.463829,51.1126143 111.634402,50.8606919 111.852763,50.6507738 C112.071123,50.4424752 112.335707,50.2809705 112.644949,50.1679483 C112.954191,50.0565111 113.300065,50 113.681005,50 C113.959942,50 114.248471,50.0193654 114.551284,50.0597502 C114.852534,50.1001005 115.179292,50.1566461 115.528363,50.229318 L115.467787,50.6636955 C115.094805,50.5748973 114.761652,50.511908 114.468396,50.4763818 C114.173507,50.4408556 113.912087,50.4214902 113.680971,50.4214902 C113.371729,50.4214902 113.08803,50.4683187 112.829807,50.560356 C112.571584,50.6540128 112.350026,50.7864349 112.168331,50.9592073 C111.985037,51.1319797 111.84477,51.3386933 111.744331,51.5808985 C111.64549,51.8215187 111.596104,52.091187 111.596104,52.3899379 C111.596104,52.6224605 111.629572,52.832413 111.698108,53.0164877 C111.765044,53.2021818 111.873442,53.3717496 112.024866,53.5235371 C112.17629,53.6769441 112.373937,53.822288 112.621004,53.9595342 C112.866473,54.0951953 113.16932,54.2292025 113.526384,54.356766 C113.915318,54.510173 114.254797,54.6668191 114.544924,54.8282892 C114.835017,54.9897594 115.077288,55.1673904 115.271772,55.3644212 C115.466222,55.5630371 115.611285,55.7891161 115.706929,56.0474822 C115.802572,56.3042287 115.850394,56.6062186 115.850394,56.9517979 C115.850394,57.6849263 115.625639,58.2517259 115.176163,58.6538163 C114.728252,59.0575951 114.101843,59.2578305 113.300065,59.2578305 L113.300065,59.2578305 Z" id="Shape" fill="#FFFFFF" sketch:type="MSShapeGroup"></path>
                <path d="M120.081146,59.2578305 C119.057754,59.2578305 118.288253,58.8732351 117.772644,58.1057134 C117.257035,57.3381569 117,56.1844055 117,54.6411555 C117,53.0816316 117.257035,51.918074 117.772644,51.1505175 C118.288253,50.3829611 119.057754,50 120.081146,50 C121.104539,50 121.875611,50.3845954 122.39433,51.1570202 C122.914655,51.9278106 123.173228,53.0897338 123.173228,54.6411208 C123.173228,56.1761989 122.911511,57.3283508 122.389649,58.1007756 C121.866214,58.8716008 121.09668,59.2578305 120.081146,59.2578305 L120.081146,59.2578305 Z M120.081146,58.8194404 C120.979165,58.8194404 121.646801,58.4755996 122.084055,57.7895176 C122.52131,57.1034355 122.740723,56.0539699 122.740723,54.6411208 C122.740723,51.8381992 121.853673,50.4383553 120.08118,50.4383553 C119.190987,50.4383553 118.524956,50.7838305 118.082986,51.4731465 C117.642622,52.1640968 117.421637,53.2200998 117.421637,54.6411208 C117.421637,56.0702787 117.64105,57.123013 118.078304,57.8009233 C118.515492,58.4805027 119.183128,58.8194404 120.081146,58.8194404 L120.081146,58.8194404 Z" id="Shape" fill="#FFFFFF" sketch:type="MSShapeGroup"></path>
                <path d="M125,50 L125.439303,50 L125.439303,58.3882535 L128.968504,58.3882535 L128.968504,58.8169814 L125,58.8169814 L125,50 L125,50 Z" id="Shape" fill="#FFFFFF" sketch:type="MSShapeGroup"></path>
                <path d="M133.079903,58.8169814 C132.539321,58.8169814 132.075496,58.7493689 131.690103,58.6172643 C131.303002,58.4836162 130.984363,58.2713161 130.735753,57.9819746 C130.485506,57.692633 130.300304,57.3215189 130.180182,56.8717862 C130.060061,56.4204765 130,55.8826965 130,55.2552585 L130,50 L130.4488,50 L130.4488,55.2426755 C130.4488,55.7993468 130.50053,56.277366 130.603954,56.6767667 C130.709087,57.0761674 130.870899,57.404835 131.091134,57.6580046 C131.311368,57.9127514 131.585006,58.0998855 131.913685,58.2177965 C132.242363,58.3341639 132.631139,58.3939247 133.079939,58.3939247 C133.528739,58.3939247 133.917514,58.3341639 134.246193,58.2177965 C134.574871,58.099852 134.848509,57.9127178 135.068744,57.6580046 C135.288979,57.404835 135.452499,57.0761674 135.555923,56.6767667 C135.659383,56.277366 135.711077,55.7993132 135.711077,55.2426755 L135.711077,50 L136.173228,50 L136.173228,55.2552585 C136.173228,55.8826965 136.113168,56.4204765 135.993046,56.8717862 C135.871251,57.3215189 135.684376,57.692633 135.430782,57.9819746 C135.177188,58.2713161 134.855167,58.4835827 134.464754,58.6172643 C134.074306,58.7493689 133.612119,58.8169814 133.079903,58.8169814 L133.079903,58.8169814 Z" id="Shape" fill="#FFFFFF" sketch:type="MSShapeGroup"></path>
                <path d="M139.650025,50.428728 L137,50.428728 L137,50 L142.732283,50 L142.732283,50.428728 L140.095548,50.428728 L140.095548,58.8169814 L139.650025,58.8169814 L139.650025,50.428728 L139.650025,50.428728 Z" id="Shape" fill="#FFFFFF" sketch:type="MSShapeGroup"></path>
                <path d="M144,50 L144.5,50 L144.5,58.8169814 L144,58.8169814 L144,50 L144,50 Z" id="Shape" fill="#FFFFFF" sketch:type="MSShapeGroup"></path>
                <path d="M150.080362,59.2578305 C149.058802,59.2578305 148.289497,58.8732351 147.774019,58.1057134 C147.258541,57.3381569 147,56.1844055 147,54.6411555 C147,53.0816316 147.258508,51.918074 147.774019,51.1505175 C148.289497,50.3829611 149.058802,50 150.080362,50 C151.103494,50 151.87437,50.3845954 152.394529,51.1570202 C152.913149,51.9278106 153.173228,53.0897338 153.173228,54.6411208 C153.173228,56.1761989 152.911578,57.3283508 152.388243,58.1007756 C151.864975,58.8716008 151.095637,59.2578305 150.080362,59.2578305 L150.080362,59.2578305 Z M150.080362,58.8194404 C150.978152,58.8194404 151.647156,58.4755996 152.084299,57.7895176 C152.521442,57.1034355 152.739228,56.0539699 152.739228,54.6411208 C152.739228,51.8381992 151.853976,50.4383553 150.080362,50.4383553 C149.190396,50.4383553 148.524534,50.7838305 148.084248,51.4731465 C147.642425,52.1640968 147.423068,53.2200998 147.423068,54.6411208 C147.423068,56.0702787 147.640853,57.123013 148.077996,57.8009233 C148.515106,58.4805027 149.182572,58.8194404 150.080362,58.8194404 L150.080362,58.8194404 Z" id="Shape" fill="#FFFFFF" sketch:type="MSShapeGroup"></path>
                <path d="M155,50 L155.488043,50 L160.063289,57.0542245 L160.685185,58.0790389 L160.745581,58.0662853 L160.745581,50 L161.173228,50 L161.173228,58.8169814 L160.673761,58.8169814 L156.121363,51.7994194 L155.488043,50.7506962 L155.439072,50.7634498 L155.439072,58.8169814 L155,58.8169814 L155,50 L155,50 Z" id="Shape" fill="#FFFFFF" sketch:type="MSShapeGroup"></path>
                <path d="M165.300065,59.2578305 C165.132689,59.2578305 164.946198,59.2481478 164.740592,59.2271284 C164.533388,59.207763 164.326149,59.1803 164.120543,59.1431543 C163.913339,59.1076281 163.714093,59.0672433 163.518045,59.0220344 C163.323595,58.9784451 163.151424,58.9283776 163,58.8718665 L163.071732,58.4617129 C163.207204,58.5101609 163.36822,58.5553698 163.554677,58.6005787 C163.741167,58.644168 163.935617,58.6829333 164.13806,58.7152204 C164.340503,58.7475076 164.542911,58.7733511 164.745354,58.7927165 C164.947797,58.8137014 165.137451,58.8233841 165.311187,58.8233841 C165.979057,58.8233841 166.495504,58.6619139 166.860492,58.3405586 C167.225515,58.0192033 167.408809,57.5557432 167.408809,56.9518323 C167.408809,56.678925 167.365783,56.4351002 167.278099,56.221943 C167.190414,56.0087858 167.059738,55.8182331 166.884403,55.6486653 C166.710667,55.4790975 166.493905,55.3256905 166.235682,55.1835857 C165.977459,55.0431004 165.677808,54.9042347 165.335098,54.766954 C164.938205,54.6151665 164.60029,54.4585205 164.322952,54.2970503 C164.045614,54.1355801 163.81926,53.9611537 163.643926,53.7722205 C163.468591,53.5832873 163.344275,53.3749887 163.267747,53.1505293 C163.192817,52.9244504 163.154587,52.6709429 163.154587,52.3899379 C163.154587,52.0282323 163.216762,51.7003989 163.339479,51.4065066 C163.463829,51.1126143 163.634368,50.8606919 163.852729,50.6507738 C164.071089,50.4424752 164.335673,50.2809705 164.644915,50.1679483 C164.954157,50.0565111 165.300031,50 165.681005,50 C165.959942,50 166.248437,50.0193654 166.551284,50.0597502 C166.852534,50.1001005 167.179292,50.1566461 167.528363,50.229318 L167.467787,50.6636955 C167.094805,50.5748973 166.761686,50.511908 166.468396,50.4763818 C166.173507,50.4408556 165.912121,50.4214902 165.681005,50.4214902 C165.371763,50.4214902 165.088064,50.4683187 164.829841,50.560356 C164.571618,50.6540128 164.35006,50.7864349 164.168365,50.9592073 C163.985071,51.1319797 163.844804,51.3386933 163.744365,51.5808985 C163.645524,51.8215187 163.596138,52.091187 163.596138,52.3899379 C163.596138,52.6224605 163.629606,52.832413 163.698142,53.0164877 C163.765078,53.2021818 163.873476,53.3717496 164.0249,53.5235371 C164.176324,53.6769441 164.373971,53.822288 164.621038,53.9595342 C164.866507,54.0951953 165.169354,54.2292025 165.526384,54.356766 C165.915318,54.510173 166.254831,54.6668191 166.544924,54.8282892 C166.835017,54.9897594 167.077288,55.1673904 167.271772,55.3644212 C167.466222,55.5630371 167.611285,55.7891161 167.706929,56.0474822 C167.802572,56.3042287 167.850394,56.6062186 167.850394,56.9517979 C167.850394,57.6849263 167.625639,58.2517259 167.176163,58.6538163 C166.728218,59.0575951 166.101809,59.2578305 165.300065,59.2578305 L165.300065,59.2578305 Z" id="Shape" fill="#FFFFFF" sketch:type="MSShapeGroup"></path>
            </g>
        </g>
    </g>
</svg>